<svg width="48" height="48" viewBox="0 0 48 48" fill="none" xmlns="http://www.w3.org/2000/svg">
    <rect width="48" height="48" rx="8" fill="#FF4400"/>
    <path fill-rule="evenodd" clip-rule="evenodd" d="M12.75 13.6875C13.2678 13.6875 13.6875 14.1072 13.6875 14.625V32.4375H35.25C35.7678 32.4375 36.1875 32.8572 36.1875 33.375C36.1875 33.8928 35.7678 34.3125 35.25 34.3125H12.75C12.2322 34.3125 11.8125 33.8928 11.8125 33.375V14.625C11.8125 14.1072 12.2322 13.6875 12.75 13.6875Z" fill="white"/>
    <path fill-rule="evenodd" clip-rule="evenodd" d="M35.9556 19.6327C36.2965 20.0223 36.257 20.6146 35.8674 20.9556L28.3674 27.5181C28.034 27.8098 27.5419 27.8283 27.1875 27.5625L20.2955 22.3935L13.3674 28.4556C12.9777 28.7965 12.3854 28.757 12.0445 28.3674C11.7035 27.9777 11.743 27.3854 12.1327 27.0445L19.6327 20.482C19.9661 20.1903 20.4581 20.1717 20.8125 20.4375L27.7046 25.6066L34.6327 19.5445C35.0223 19.2035 35.6146 19.243 35.9556 19.6327Z" fill="white"/>
</svg>
